<?xml version="1.0" encoding="UTF-8"?> <svg xmlns="http://www.w3.org/2000/svg" xmlns:xlink="http://www.w3.org/1999/xlink" width="265.265" height="100.888" viewBox="0 0 265.265 100.888"><defs><clipPath id="clip-path"><rect id="Rectangle_1010" data-name="Rectangle 1010" width="265.265" height="100.888" fill="none"></rect></clipPath></defs><g id="Group_286" data-name="Group 286" transform="translate(0 0)"><path id="Path_21" data-name="Path 21" d="M68.033,0,60.826,21.384,45.392,30.969h0l1.275-5.641L56.877,19.87,60.389,7.941l-2.141-.63L55,18.341l-7.686,4.106,1.377-6.09-2.178-.492-3.79,16.761h0L39.3,34.752H30.845l-3.421-2.126h0L23.633,15.866l-2.179.492,1.378,6.091-7.687-4.107L11.9,7.311l-2.141.63L13.267,19.87l10.215,5.458,1.277,5.645L9.322,21.384,2.115,0,0,.714,7.457,22.858l22.55,14,.2.123h9.724l.2-.123,22.551-14L70.148.714Z" fill="#fff"></path><path id="Path_22" data-name="Path 22" d="M31.6,66.944h6.275l5.31,19.138.106-.03-8.55,10.275L26.188,86.054l.1.028Zm8.591,0h1.076l3.1-12.235,7.57,20.948-7,8.41ZM17.534,75.657l7.659-21.19,3.27,12.477h.821l-4.75,17.12ZM14.262,37.092l-2.434-7.217,8.535,6.135,1.329,5.074ZM49.116,36l8.529-6.129-2.429,7.217-7.379,3.963Zm-1.965-1.334-1.982,7.815-5.676,3.048-.7,3.489,2.188.441.5-2.457,2.953-1.585-4.9,19.291H30.187l-5.04-19.241L28,47.005l.5,2.457,2.187-.441-.7-3.489-5.611-3.009-2.054-7.86L7.5,24.013l4.929,14.63L22.462,44.03l1.763,6.732v0l-.061-.022L15,76.1,34.741,99.817,54.477,76.1,45.349,50.847l1.74-6.862,9.958-5.342,4.929-14.63Z" transform="translate(0.335 1.071)" fill="#fff"></path><path id="Path_23" data-name="Path 23" d="M105.648,77.122H101.7v4.269h-2.06V71.116h6.725V72.7H101.7v2.83h3.946Z" transform="translate(4.446 3.173)" fill="#fff"></path><rect id="Rectangle_1008" data-name="Rectangle 1008" width="2.061" height="10.275" transform="translate(120.36 74.29)" fill="#fff"></rect><path id="Path_24" data-name="Path 24" d="M135.2,81.391h-2.06L129,74.461l-.043.007v6.923h-2.06V71.116h2.06l4.143,6.923.043-.007V71.116h2.06Z" transform="translate(5.662 3.173)" fill="#fff"></path><path id="Path_25" data-name="Path 25" d="M149.916,79.175h-3.33l-.692,2.217h-2.153l3.465-10.276h2.11l3.451,10.276h-2.153Zm-2.823-1.616h2.322l-1.137-3.621h-.043Z" transform="translate(6.414 3.173)" fill="#fff"></path><path id="Path_26" data-name="Path 26" d="M169.381,81.391h-2.06l-4.143-6.93-.043.007v6.923h-2.06V71.116h2.06l4.143,6.923.043-.007V71.116h2.06Z" transform="translate(7.187 3.173)" fill="#fff"></path><g id="Group_285" data-name="Group 285" transform="translate(0 0)"><g id="Group_284" data-name="Group 284" clip-path="url(#clip-path)"><path id="Path_27" data-name="Path 27" d="M186.3,78l.015.043a3.221,3.221,0,0,1-1,2.576,4.088,4.088,0,0,1-2.844.931,3.937,3.937,0,0,1-2.984-1.189,4.267,4.267,0,0,1-1.137-3.073v-2.04a4.346,4.346,0,0,1,1.108-3.073,3.779,3.779,0,0,1,2.907-1.2,4.338,4.338,0,0,1,2.935.917,3.159,3.159,0,0,1,1.031,2.583l-.014.043h-2a2.02,2.02,0,0,0-.476-1.472,1.99,1.99,0,0,0-1.472-.484,1.661,1.661,0,0,0-1.443.745,3.285,3.285,0,0,0-.519,1.923v2.054a3.2,3.2,0,0,0,.547,1.934,1.778,1.778,0,0,0,1.52.748,1.81,1.81,0,0,0,1.38-.484A2.1,2.1,0,0,0,184.305,78Z" transform="translate(7.958 3.167)" fill="#fff"></path><rect id="Rectangle_1009" data-name="Rectangle 1009" width="2.061" height="10.275" transform="translate(203.984 74.29)" fill="#fff"></rect><path id="Path_28" data-name="Path 28" d="M212.457,79.175h-3.33l-.692,2.217h-2.153l3.465-10.276h2.11l3.451,10.276h-2.153Zm-2.823-1.616h2.322l-1.137-3.621h-.043Z" transform="translate(9.204 3.173)" fill="#fff"></path><path id="Path_29" data-name="Path 29" d="M225.677,79.81h4.6v1.582h-6.662V71.116h2.06Z" transform="translate(9.978 3.173)" fill="#fff"></path><path id="Path_30" data-name="Path 30" d="M106.22,50.672l-4.631,8.5c-.478.848-1.156.6-2.684.6H90.8V27.535h-9.74v1.238h3.424V59.778H81.059v1.194H106.17l.685-10.3Z" transform="translate(3.617 1.229)" fill="#fff"></path><path id="Path_31" data-name="Path 31" d="M141.117,50.672l-4.638,8.5c-.471.848-1.155.6-2.683.6H125.69V28.729h-.019V27.535h-9.715v1.194h3.418V59.778h-3.418v1.194h25.1l.685-10.3Z" transform="translate(5.174 1.229)" fill="#fff"></path><path id="Path_32" data-name="Path 32" d="M165.36,26.987c-10.469,0-15.471,7.862-15.471,17.433,0,9.332,5.53,17.148,15.635,17.148,10.526,0,15.521-7.868,15.521-17.432,0-9.332-5.574-17.15-15.685-17.15M173.416,51.1c-.578,6.3-1.319,9.319-8.156,9.319-5.474,0-7.214-2.64-7.792-9.036a81.681,81.681,0,0,1,0-13.926c.578-6.3,1.319-9.319,8.156-9.319,5.473,0,7.214,2.64,7.792,9.036a76.932,76.932,0,0,1,0,13.926" transform="translate(6.688 1.204)" fill="#fff"></path><path id="Path_33" data-name="Path 33" d="M239.737,27.535H224.109v1.2h3.418V59.778h-3.418v1.194h15.628c10.633,0,15.528-7.623,15.528-16.86,0-8.86-5.424-16.577-15.528-16.577m7.9,23.489c-.321,3.745-.421,8.754-7.685,8.754h-6.108V28.735H240c6.793,0,7.371,5.335,7.635,8.414a88.144,88.144,0,0,1,0,13.875" transform="translate(10 1.229)" fill="#fff"></path><path id="Path_34" data-name="Path 34" d="M204.526,59.778V44.772l-.169-.748v-.006l-.183-.8V43.2l-.277-.421-.05-.075-1.357-2.074-.49-.742-.233-.352-7.088-10.8-.786-1.2h-9.313v1.194l2.746.013L198.21,45.105V59.778h-3.418v1.194h13.159V59.778Z" transform="translate(8.236 1.229)" fill="#fff"></path><path id="Path_35" data-name="Path 35" d="M214.907,27.535H204.1l-.006,1.2H207.8l-6.045,9.6.238.365.49.759,1.66,2.571.364.559.333.515Z" transform="translate(9.002 1.229)" fill="#fff"></path></g></g></g></svg> 