<?xml version="1.0" encoding="UTF-8" standalone="no"?>
<!-- Created with Inkscape (http://www.inkscape.org/) -->

<svg
   xmlns:dc="http://purl.org/dc/elements/1.1/"
   xmlns:cc="http://creativecommons.org/ns#"
   xmlns:rdf="http://www.w3.org/1999/02/22-rdf-syntax-ns#"
   xmlns:svg="http://www.w3.org/2000/svg"
   xmlns="http://www.w3.org/2000/svg"
   xmlns:sodipodi="http://sodipodi.sourceforge.net/DTD/sodipodi-0.dtd"
   xmlns:inkscape="http://www.inkscape.org/namespaces/inkscape"
   version="1.1"
   id="svg3818"
   width="1344"
   height="380"
   viewBox="0 0 1344 380"
   sodipodi:docname="links_FLT.svg"
   inkscape:version="0.92.1 r15371">
  <metadata
     id="metadata3824">
    <rdf:RDF>
      <cc:Work
         rdf:about="">
        <dc:format>image/svg+xml</dc:format>
        <dc:type
           rdf:resource="http://purl.org/dc/dcmitype/StillImage" />
        <dc:title></dc:title>
      </cc:Work>
    </rdf:RDF>
  </metadata>
  <defs
     id="defs3822" />
  <sodipodi:namedview
     pagecolor="#ffffff"
     bordercolor="#666666"
     borderopacity="1"
     objecttolerance="10"
     gridtolerance="10"
     guidetolerance="10"
     inkscape:pageopacity="0"
     inkscape:pageshadow="2"
     inkscape:window-width="1920"
     inkscape:window-height="1031"
     id="namedview3820"
     showgrid="false"
     inkscape:zoom="1.2879445"
     inkscape:cx="551.21732"
     inkscape:cy="181.46709"
     inkscape:window-x="0"
     inkscape:window-y="0"
     inkscape:window-maximized="1"
     inkscape:current-layer="g3866" />
  <g
     id="g3866"
     style="display:inline">
    <path
       style="display:inline;fill:#ee2028;stroke-width:1.33333337"
       d="m 1128.9393,369.88684 c -7.3319,1.04692 -5.9374,1.15176 -15.4708,0.6859 -9.5333,-0.46585 -17.951,-0.49024 -19.4177,-0.76592 -1.4666,-0.27568 -8.2253,-2.06649 -13.3587,-2.55614 -5.1333,-0.48966 -9.4569,-1.1424 -10.5569,-1.45056 -1.1,-0.30816 -5.5647,-0.28534 -8.498,-0.661 -2.9334,-0.37567 -6.251,-1.387 -8.0843,-1.77287 -3.6525,-0.76881 -8.2412,-1.98093 -14.3883,-3.13426 -2.2,-0.41276 -6.8941,-0.97707 -10.1941,-1.72849 -3.3,-0.75141 -6.7059,-0.98781 -7.8059,-1.23707 -1.1,-0.24925 -8.8646,-2.80649 -15.8313,-4.73379 -6.96663,-1.92729 -12.59609,-3.5334 -13.69609,-3.80635 -8.90601,-1.71865 -25.08705,-6.67831 -43.74697,-13.84178 -96.48152,-37.03888 -156.77047,-94.27861 -171.14956,-150.17765 -5.80612,-22.57139 -2.59157,-45.3569 9.05371,-64.83991 5.16826,-8.62682 22.03906,-26.864526 25.74622,-28.041131 3.85395,-1.223199 35.73042,15.862691 46.41251,24.681941 7.41788,6.12429 5.84358,7.59549 0.99773,11.26857 -12.6865,10.44406 -21.04121,20.6238 -22.17478,33.9369 -2.47674,29.0877 23.95621,64.21887 72.38858,95.92137 34.94516,22.87416 79.4115,41.86982 123.75505,51.76014 16.1418,3.60025 18.0313,4.27879 26.751,5.551 2.9333,0.42798 15.233,2.10193 19.2664,2.77094 27.3863,4.54256 70.6231,4.17196 98.5273,-0.35111 53.3094,-8.64126 89.4543,-30.87109 94.2606,-58.5963 6.2055,-35.79708 -36.9343,-83.5147 -104.9051,-117.46249 -18.501,-9.24028 -45.3183,-19.3659 -57.3433,-22.57615 -1.1,-0.29366 -9.2352,-2.65647 -15.4685,-4.53895 -10.8582,-3.2792 -21.4129,-5.66463 -31.2906,-7.38876 -2.5667,-0.44801 -10.3101,-1.3813 -13.4118,-2.074 -3.1017,-0.69269 -8.043,-2.01232 -12.6413,-2.45801 -4.5983,-0.44569 -15.0852,-1.00045 -15.4754,-1.2328 -3.2396,-1.929551 -42.32518,-3.393633 -62.97352,-1.995049 -7.20337,0.48791 -21.92895,0.748946 -21.92895,0.102994 0,-2.328247 -21.61246,-27.205825 -30.88054,-33.702907 -5.23049,-3.666667 -11.47706,-6.853535 -11.12062,-9.454356 1.13294,-3.377253 7.81298,-2.513887 13.63687,-3.365454 5.82389,-0.851566 18.36869,-2.589387 20.04831,-2.912851 17.489,-3.368073 76.25835,-3.617477 94.01565,-0.277548 1.4323,0.269394 12.0026,1.267798 16.135,1.74419 4.1324,0.476392 9.8709,2.066442 11.329,2.347232 1.458,0.28079 8.4709,1.849385 11.3139,2.29955 8.7353,1.383197 6.1687,1.064202 16.1714,3.218885 5.3058,1.142901 13.336,3.122732 14.9982,3.450654 9.0992,1.795169 42.4685,11.752353 58.3829,17.635875 10.1163,3.739963 33.2978,13.285526 47.299,20.179515 68.6389,33.79667 116.3565,79.41624 131.8598,124.47736 4.1241,11.98675 4.4992,16.59518 4.4531,33.60207 -0.049,18.10413 -1.5519,26.03008 -10.1746,40.88885 -5.7116,9.84231 -22.1713,26.04928 -33.3126,33.40541 -31.046,20.49835 -75.0894,34.63304 -124.3061,37.46228 -13.7423,0.78998 -31.5159,1.44554 -31.955,1.10083 z"
       id="path3872"
       inkscape:connector-curvature="0"
       sodipodi:nodetypes="csccssscccccssccscsssccccsscscscssscsscsccccccccssscc"
       inkscape:label="red ring" />
    <path
       style="fill:#3e519b;stroke-width:1.33333337"
       d="m 644.04599,311.26916 c -0.27122,-0.24052 -8.45188,-0.8091 -16.51855,-1.2635 -8.06666,-0.4544 -15.5755,-0.38155 -17.04217,-0.66844 -1.46667,-0.28689 -6.55783,-1.51588 -10.95783,-2.01936 -6.9409,-0.79423 -13.47079,-1.89107 -34.30387,-5.60682 -17.54616,-3.1295 -61.26704,-17.06931 -60.5106,-18.894 0.22746,-0.54864 5.22996,-5.30779 11.2353,-10.57587 6.00536,-5.26809 14.58658,-13.82809 18.69982,-18.54599 l 8.07216,-9.25881 7.1315,2.6616 c 7.44016,2.7768 27.05789,6.19239 32.48563,7.17899 4.39814,0.79947 22.79135,4.79102 30.10167,5.8443 26.51983,3.82099 83.26282,3.18522 105.18082,-0.53076 1.83333,-0.31083 14.48585,-2.10175 18.15252,-2.55639 13.56832,-1.68239 30.27697,-4.76705 56.98616,-12.41769 5.46285,-1.56478 7.93473,-1.22794 11.65432,3.27911 4.73997,5.74345 17.86414,18.76162 26.37188,26.3555 4.90608,4.37909 6.62236,7.03203 5.24899,7.89426 -5.02987,3.15784 -51.41719,17.01087 -65.21918,19.28969 -2.56667,0.42377 -6.82837,1.11105 -7.92837,1.40866 -1.1,0.29761 -4.69116,0.49867 -7.62449,0.92128 -2.93333,0.42262 -7.42449,1.93087 -9.62449,2.28408 -2.2,0.35323 -6.187,0.34734 -8.3855,0.69866 -2.19851,0.35132 -8.48967,1.50147 -13.6245,1.96279 -5.13482,0.46133 -11.72721,1.20025 -14.29388,1.52342 -5.75036,0.72407 -64.60428,1.64102 -65.28734,1.03529 z M 912,250.16325 c 0,-0.27686 1.05,-1.32686 2.33333,-2.33333 2.11475,-1.65849 2.16191,-1.61133 0.50342,0.50341 -1.74183,2.221 -2.83675,2.92731 -2.83675,1.82992 z M 426.46912,241.17034 C 404.49923,222.32586 392.28068,203.78503 386.84516,182.53235 370.039,116.82085 439.15217,51.085068 554.69151,23.527248 c 16.30634,-3.889304 16.1403,-4.033159 26.608,-5.690677 2.84294,-0.450165 8.40003,-1.630544 9.85805,-1.911333 1.45803,-0.280791 6.80843,-1.094411 10.94081,-1.570803 4.13237,-0.476392 24.70791,-3.592972 33.8936,-3.841577 13.7698,-0.372671 59.5153,-1.3015835 80.40895,0.740977 15.53224,1.51843 15.45208,1.704982 21.87492,2.632934 3.16672,0.457518 12.03097,1.811399 14.59764,2.178277 14.3362,2.04921 33.43787,6.342368 49.51474,10.808536 C 881.29038,48.79268 935.11229,88.310976 951.27962,136 c 1.90252,5.61189 2.56673,11.76858 2.51317,24.01271 -0.0601,13.7584 0.70196,17.47796 -2.304,25.95367 -6.60708,18.6295 -21.36271,39.44102 -39.50513,54.90804 l -7.98282,5.87 -7.7432,-6.09376 c -3.4047,-2.39073 -11.88306,-9.65777 -19.31527,-16.86072 l -14.87189,-14.6491 8.39626,-9.00609 c 28.07783,-30.11715 29.53084,-59.37166 -7.00393,-88.4045 -27.13487,-21.563087 -64.75079,-37.31991 -112.89319,-46.520217 -7.7,-1.471517 -16.46179,-3.102605 -19.94513,-3.506017 -14.4055,-1.668332 -18.19409,-1.567327 -27.09705,-2.325236 -9.69248,-0.825121 -28.35852,-1.276849 -41.28939,-1.046499 -12.93087,0.23035 -22.81045,0.346348 -36.23805,1.579297 -13.4276,1.232949 -28.42917,4.881147 -43.90684,7.374044 -10.30208,1.637261 -38.61349,9.692692 -53.21968,15.501732 -43.32751,17.231816 -74.31808,42.724546 -81.71482,67.302036 -2.92462,9.7178 -1.44965,21.35813 3.36356,30.82991 5.10383,10.04366 5.73795,11.61757 17.23649,22.49715 l 10.04988,9.5089 -6.20966,7.42352 c -10.56445,12.6296 -32.3761,29.66187 -35.16967,29.66187 -0.54941,0 -6.37356,-5.76404 -9.96014,-8.8404 z M 949.94517,111.91129 c -0.48337,-0.78212 -0.5929,-1.708 -0.2434,-2.0575 0.3495,-0.34951 0.99075,0.29041 1.425,1.42204 0.90158,2.34948 0.13307,2.76274 -1.1816,0.63546 z"
       id="path3870"
       inkscape:connector-curvature="0"
       sodipodi:nodetypes="csssscsscscscccssccsccscccsccsssscsssssssscscccccssssszzcsssscssscccc"
       inkscape:label="blue ring" />
    <path
       style="display:inline;fill:#000106;stroke-width:1.33333337"
       d="M 171.33333,377.90572 C 130.97918,372.20068 113.11139,368.2612 92,360.41433 56.385217,347.17672 28.90108,326.84261 14.675823,303.20615 8.5910707,293.0958 4.6191097,276.07172 3.5192036,261.02244 2.1996342,242.96765 12.007004,207.29573 29.089731,184.37823 82.247869,113.06339 197.37297,57.031801 318.66667,43.440647 c 42.45984,-4.757694 81.23042,-3.917734 119.66002,2.592421 10.62538,1.799989 20.85263,2.887757 22.72723,2.417263 1.8746,-0.470495 10.09788,-4.035207 18.27396,-7.921583 C 516.16653,23.018059 563.98576,10.321016 614.01331,4.7668508 624.27265,3.6278363 637.76667,2.1303277 644,1.439054 c 13.88635,-1.53998941 52.60869,-0.92710219 68,1.0762864 6.23333,0.8113533 18.83333,2.421396 28,3.5778725 48.22744,6.0844261 94.85396,19.7995001 133.25037,39.1952641 9.67882,4.889211 9.87004,4.890675 36.08296,0.276332 85.82454,-15.107968 197.86607,3.267339 287.33337,47.123947 41.4813,20.334014 69.029,39.418864 96.0405,66.536044 24.8983,24.99569 35.9363,41.86732 45.6101,69.71511 4.5024,12.96066 4.9968,15.72065 4.9675,27.72676 -0.025,10.38489 -0.7243,15.39724 -3.1608,22.66666 -10.6527,31.78392 -31.9819,54.66612 -67.4573,72.36898 -23.1879,11.57114 -47.8392,18.42658 -87.3334,24.28705 -22.5888,3.35192 -29.1487,3.80891 -50,3.48321 -43.3214,-0.67668 -94.3501,-8.51389 -138.81051,-21.31913 -51.815,-14.92345 -94.26179,-34.27389 -134.22008,-61.18763 l -15.6973,-10.57284 -12.96937,4.71251 c -25.83263,9.38645 -51.02484,16.21861 -74.30271,20.15097 -86.79872,14.66303 -172.75216,9.06458 -247.4857,-16.11964 l -18.15236,-6.1171 -10.51431,7.30148 c -48.22283,33.48748 -116.50881,60.70058 -184.54047,73.54244 -45.79645,8.64466 -99.1878,12.01744 -127.30716,8.04209 z m 73.33334,-8.61333 C 374.37321,358.37456 497.32396,299.53959 547.95268,224.16252 561.59016,203.85877 568,183.72387 568,161.18888 c 0,-23.20748 -6.66269,-39.8662 -23.29493,-58.2443 -8.70772,-9.621756 -12.50588,-11.460029 -19.6844,-9.527053 -11.8595,3.193429 -34.91699,16.627903 -42.73734,24.900963 l -3.71668,3.93182 10.00614,8.95544 c 16.36789,14.6492 22.24766,30.40981 17.47268,46.8352 C 484.55793,251.95545 343.61695,321.2142 214.4746,321.31957 147.15523,321.37451 92.393685,301.35031 75.254856,270.41225 71.777828,264.13571 71.333333,262.04873 71.333333,252 c 0,-10.31753 0.441923,-12.2588 4.930567,-21.65885 6.178467,-12.93884 11.462623,-20.65743 21.684419,-31.67448 C 120.34112,174.53169 148.17917,155.3704 187.66071,136.91645 244.6786,110.26589 318.36992,95.313291 378.956,98.100992 l 19.62268,0.902883 13.04399,-12.540935 c 7.1742,-6.897513 15.744,-14.589121 19.044,-17.09246 3.3,-2.503339 8.01056,-6.496355 10.46792,-8.873369 l 4.46792,-4.321844 -5.64168,-1.51915 C 430.40641,52.083381 420.80689,50.855555 397.62855,49.241604 327.02725,44.325505 240.53985,59.863529 170.66667,90.016783 97.221379,121.71155 43.310111,165.45525 21.151904,211.33333 c -7.459137,15.44398 -10.19,25.0884 -11.3436305,40.06162 -0.96185,12.48405 1.7908515,28.60766 6.8289385,39.99968 18.833705,42.58634 78.100803,71.86273 158.696118,78.39172 12.80667,1.03745 54.68418,0.7391 69.33334,-0.49396 z M 1164,368.78601 c 49.2167,-2.82924 93.8424,-15.79929 124.8884,-36.29764 11.1413,-7.35613 27.2128,-23.75721 32.9244,-33.59952 8.6227,-14.85877 10.7078,-22.78472 10.7569,-40.88885 0.046,-17.00689 -0.329,-19.67424 -4.4531,-31.66099 -21.6642,-62.96821 -107.7763,-125.45629 -215.4877,-156.370785 -11.3216,-3.249437 -21.9447,-6.176365 -23.6068,-6.504286 -1.6622,-0.327922 -7.3631,-1.531322 -12.6689,-2.674223 -10.0027,-2.154683 -13.4535,-2.806227 -22.1888,-4.189424 -2.843,-0.450165 -6.3619,-1.048221 -7.8199,-1.329011 -1.4581,-0.28079 -6.032,-0.900302 -10.1644,-1.376694 -4.1324,-0.476392 -8.6853,-1.08658 -10.1176,-1.355974 -17.7573,-3.339929 -87.00851,-3.284633 -104.49751,0.08344 -1.67962,0.323464 -7.81886,1.284854 -13.64275,2.13642 -5.82389,0.851567 -10.56292,1.929279 -10.53115,2.394915 0.0317,0.465636 4.33727,3.846612 9.56776,7.513279 9.26808,6.497082 28.35842,27.528639 34.7627,33.897014 8.15124,-0.81361 5.40841,-0.391514 12.61178,-0.879424 20.64834,-1.398584 69.05107,-0.322718 72.29067,1.606831 0.3902,0.232352 4.4716,0.787112 9.0699,1.232802 4.5983,0.44569 10.8983,1.3771 14,2.06979 3.1017,0.6927 7.7394,1.62599 10.3061,2.074 9.8777,1.72413 27.8085,6.05064 38.6667,9.32984 6.2333,1.88248 12.2333,3.66297 13.3333,3.95663 12.025,3.21025 39.2305,14.30641 57.7315,23.54664 67.9708,33.94778 110.9165,82.44184 104.711,118.23892 -4.8063,27.72521 -40.9512,50.34325 -94.2606,58.9845 -27.9042,4.52316 -78.1289,4.50555 -105.5152,-0.0371 -4.0334,-0.66902 -9.7334,-1.56654 -12.6667,-1.99451 -8.7197,-1.27221 -11.1915,-1.75664 -27.3333,-5.35689 -55.42869,-12.36272 -114.00417,-39.46434 -151.33337,-70.01867 -11.1034,-9.08825 -26.53074,-25.05871 -32.22544,-33.35989 -10.78281,-15.71823 -16.85005,-33.70003 -15.6455,-46.36951 1.11146,-11.69048 9.86472,-24.94377 23.10024,-34.97608 4.84585,-3.67308 4.86729,-3.59141 -2.55059,-9.71569 -10.68209,-8.81926 -40.03516,-24.158178 -43.88911,-22.934979 -3.70716,1.176605 -18.63688,17.667339 -23.80514,26.294159 -40.44182,67.505 30.11781,160.8397 160.34888,212.106 16.64093,6.55082 36.45674,13.63092 42,15.00643 1.1,0.27295 7.7,2.07316 14.66663,4.00045 6.9667,1.9273 13.5667,3.70811 14.6667,3.95736 1.1,0.24926 4.7,1.06799 8,1.8194 3.3,0.75142 7.8,1.70394 10,2.1167 6.1471,1.15333 10.3475,1.97724 14,2.74605 1.8333,0.38589 5.7333,1.009 8.6667,1.38467 2.9333,0.37566 6.2333,0.93516 7.3333,1.24332 1.1,0.30816 6.2,0.9609 11.3333,1.45056 5.1334,0.48965 10.5334,1.11582 12,1.3915 1.4667,0.27568 10.4667,0.88239 20,1.34824 9.5334,0.46586 17.4561,0.94334 17.606,1.06107 0.4391,0.34471 21.3184,-0.31085 35.0607,-1.10083 z M 266,310.0218 c 33.68423,-4.55753 70.07453,-13.77879 100.24043,-25.4008 21.09842,-8.12859 52.57269,-23.90292 57.07986,-28.60739 l 3.63791,-3.79714 -10.21793,-9.77491 c -32.96423,-31.53493 -46.55818,-66.85212 -38.30076,-99.50572 2.57058,-10.16532 7.02389,-22.17623 11.59372,-31.26917 1.0135,-2.01667 1.42065,-3.71258 0.90476,-3.76868 -0.5159,-0.0561 -2.13799,-0.43858 -3.60466,-0.84992 -4.74018,-1.32945 -50.24792,-0.73297 -64.66666,0.8476 -83.18302,9.11847 -164.71702,42.66337 -211.3388,86.94952 -31.006889,29.4535 -40.608599,59.03153 -25.56549,78.75437 14.54445,19.06905 49.4311,33.14823 95.05961,38.36311 15.34768,1.75408 66.48014,0.58897 85.17801,-1.94087 z m 11.29776,-50.55177 c -0.73894,-2.75775 -22.18437,-76.14991 -26.68194,-92.93507 17.60971,-4.71851 7.92454,-2.12619 32.71751,-8.51605 13.2,-3.40202 23.12853,-5.93568 26.19284,-6.81412 0.6203,2.31499 1.27871,4.35147 2.47438,8.8138 -17.46139,4.67877 -26.63335,8.05653 -46.98036,13.55323 2.25059,8.3993 6.82018,26.9395 8.66144,31.62734 9.89032,-3.07946 18.23747,-5.06249 24.42881,-6.66377 17.5126,-4.58488 10.96845,-2.86906 18.74756,-4.95346 1.14151,4.26018 1.30014,6.09888 1.88664,8.28772 -7.8228,2.09611 -37.5104,10.54021 -43.25574,12.07967 1.88776,7.04522 3.84313,14.8347 5.85294,23.22983 4.32868,18.0812 2.04574,8.44523 5.04973,19.6563 -4.09509,1.09727 -6.34531,1.89812 -9.09381,2.63458 z m 900.03554,50.65016 c 44.0065,-7.12007 75.3996,-22.95794 84.8101,-42.78686 2.3384,-4.92737 3.1559,-8.92776 3.1334,-15.33333 -0.063,-17.84192 -7.7841,-31.78492 -29.9435,-54.07136 -12.2735,-12.34397 -20.0369,-18.76063 -33.3333,-27.55093 -58.2163,-38.48713 -130.9856,-60.87735 -209.33333,-64.40934 -16.75907,-0.75552 -41.16518,0.75235 -43.07403,2.66122 -0.38928,0.38927 -0.0505,2.05686 0.75281,3.70575 3.92739,8.0613 9.65395,25.44281 11.07951,33.62891 5.08223,29.18431 -7.88793,61.43124 -36.50096,90.75022 l -12.70187,13.01525 5.18962,4.3358 c 2.85429,2.38469 10.7543,7.32517 17.5556,10.97885 44.23218,23.76172 103.88385,41.35284 159.03265,46.8983 17.3324,1.74285 68.1689,0.63106 83.3333,-1.82248 z M 1039.6118,259.3232 c 3.3969,-13.36766 4.6229,-21.18284 9.7987,-40.95113 5.1757,-19.76828 8.7404,-35.5009 10.1646,-41.72278 -3.5582,-1.51958 -21.6735,-5.71131 -29.9564,-8.41549 0.7431,-3.09239 1.8419,-6.99 2.8597,-10.04384 8.8592,2.41931 3.8394,1.12731 21.0316,5.65315 8.3362,2.19449 21.4567,5.61457 29.1567,7.60016 20.3796,5.25529 8.5294,2.1887 21.0959,5.55588 -1.9586,7.30939 -1.324,4.48867 -2.7187,8.72942 -14.7072,-3.96843 -14.3868,-3.1931 -28.9112,-6.44204 -2.7276,8.40068 -8.0514,24.68014 -12.8874,43.38014 -8.1189,31.39376 -7.931,29.57732 -10.0184,38.21248 -4.5105,-0.80228 -3.1657,-0.12376 -9.6151,-1.55595 z m -330.27847,49.55192 c 2.56667,-0.32317 8.8679,-0.96504 14.00272,-1.42637 5.13483,-0.46132 11.13483,-1.1262 13.33334,-1.47752 2.1985,-0.35132 5.79728,-0.92775 7.99728,-1.28098 2.2,-0.35321 6.4,-0.98798 9.33333,-1.4106 2.93333,-0.42261 6.23333,-1.01188 7.33333,-1.30949 1.1,-0.29761 4.1,-0.88784 6.66667,-1.31161 13.80199,-2.27882 61.45101,-16.0348 66.48088,-19.19264 1.37337,-0.86223 0.23941,-2.54463 -4.66667,-6.92372 -8.50774,-7.59388 -21.53485,-20.7091 -26.27482,-26.45255 -3.71959,-4.50705 -3.86218,-4.55273 -9.32503,-2.98795 -26.70919,7.65064 -47.97937,12.57932 -61.54769,14.26171 -3.66667,0.45464 -8.16667,1.08092 -10,1.39175 -10.41763,1.76621 -26.42024,3.1605 -54.82265,3.1605 -28.59427,0 -43.39166,-1.22782 -58.51069,-3.40617 -7.31032,-1.05328 -20.26852,-3.10376 -24.66666,-3.90323 -5.42774,-0.9866 -27.9004,-6.69938 -35.4943,-9.02301 l -6.16096,-1.88517 -7.58689,8.48238 c -4.17279,4.66531 -12.50035,12.79263 -18.50571,18.06072 -6.00534,5.26808 -11.1049,10.02723 -11.33236,10.57587 -0.75644,1.82469 42.86739,14.69691 60.41355,17.82641 20.83308,3.71575 26.39243,4.61848 33.33333,5.41271 4.4,0.50348 9.2,1.15015 10.66667,1.43704 1.46667,0.28689 9.26667,0.89341 17.33333,1.34781 8.06667,0.4544 14.88858,1.02298 15.1598,1.2635 0.68306,0.60573 61.08984,-0.50532 66.8402,-1.22939 z M 724,251.58489 c 35.63773,-5.5227 69.33333,-13.82844 69.33333,-17.09018 0,-0.71004 -3.08657,-6.41946 -6.85904,-12.6876 -19.68944,-32.71496 -23.72174,-64.5144 -11.89174,-93.78023 3.99004,-9.87082 13.11988,-23.27455 21.32661,-31.310091 3.71663,-3.6391 6.75751,-7.363333 6.75751,-8.276077 0,-0.936747 -5.66196,-3.402292 -13,-5.660953 C 733.44715,65.4753 663.08303,61.241816 602.21437,71.50162 c -29.27472,4.934443 -59.27632,12.906376 -60.49172,16.073677 -0.37621,0.9804 2.43514,4.906367 6.27782,8.766778 12.6014,12.659555 21.74112,28.354415 26.11416,44.843635 2.88409,10.87489 2.53914,31.8315 -0.73464,44.63189 -3.02708,11.83576 -11.94858,31.35683 -19.18706,41.98305 -2.67278,3.9237 -4.8596,7.92716 -4.8596,8.8966 0,3.85983 40.25374,12.77236 74.66667,16.53187 16.82969,1.83859 84.72984,0.72216 100,-1.64423 z m -82.66667,-92.25156 v -48.66666 h 6 6 v 44 44 H 678 702.66667 V 203.33333 208 H 672 641.33333 Z m -195.87702,81.13759 c 9.23252,-7.22647 15.66621,-13.00165 24.88092,-21.67492 l 5.82144,-5.87065 -9.07934,-8.82952 C 455.73095,193.05971 454.17024,191.06 449.06641,181.01635 c -4.81321,-9.47179 -5.99702,-21.50032 -3.0724,-31.21812 7.39674,-24.5775 38.67848,-50.361391 82.00599,-67.593206 14.60619,-5.80904 43.49992,-14.446793 53.802,-16.084055 19.17888,-4.115336 39.95132,-6.334875 57.53133,-8.273964 7.00871,-0.805297 54.30752,-0.749154 64,0.07596 8.90296,0.75791 12.5945,1.142174 27,2.810506 8.92072,1.033128 32.48451,5.61544 44.33334,8.621244 53.39432,13.54505 96.37326,38.899445 112.97229,66.645275 12.45992,20.82719 6.93355,44.36092 -15.42525,65.68762 l -7.81394,7.45322 13.51314,13.09624 c 7.43221,7.20295 16.29878,15.05231 19.70348,17.44304 l 6.19034,4.34679 6.42996,-5.48177 c 18.14242,-15.46703 32.12162,-34.72568 38.7287,-53.35519 3.00596,-8.47571 3.50552,-12.09821 3.5657,-25.85661 0.0536,-12.24414 -0.5136,-17.72144 -2.41612,-23.33334 C 933.94764,88.310976 880.90216,49.472057 802,27.552959 785.92313,23.086791 766.3362,18.890687 752,16.841477 c -2.56667,-0.366878 -7.25761,-1.041382 -10.42433,-1.4989 -6.42284,-0.927952 -10.7101,-1.405666 -26.24234,-2.924096 -20.89365,-2.04256 -89.38708,-1.050175 -102.92545,1.491263 -1.32433,0.248605 -5.78892,0.841784 -9.92129,1.318176 -4.13238,0.476392 -8.70635,1.095904 -10.16438,1.376695 -1.45802,0.280789 -4.97698,0.878845 -7.81992,1.32901 -10.4677,1.657518 -13.50444,2.286642 -29.81078,6.175946 -79.64487,18.996465 -138.09956,55.640738 -160.40799,100.557099 -16.96075,34.14918 -9.07594,71.99989 20.56728,103.40662 8.08019,8.56089 19.71291,18.59338 21.19024,18.59338 0.54941,0 4.88892,-2.65288 9.41527,-6.19575 z m 41.48429,-40.13759 c 1.89172,-2.01666 4.92183,-6.66666 6.73355,-10.33333 7.0087,-14.18456 7.92653,-28.42825 2.50717,-38.90881 -3.53007,-6.82683 -14.30511,-17.1318 -20.69032,-19.78767 l -5.17567,-2.15277 -4.3438,4.21017 c -2.38909,2.3156 -6.05994,7.30668 -8.15746,11.09129 -3.2568,5.87638 -3.80966,8.34127 -3.78628,16.88112 0.0343,12.54207 3.14152,19.81615 12.89769,30.19412 6.23696,6.63448 13.62232,12.45294 15.82507,12.46756 0.4128,0.003 2.29832,-1.64501 4.19005,-3.66168 z m 377.11405,-3.70116 c 10.63187,-6.71161 21.27868,-25.37412 21.27868,-37.29884 0,-7.7254 -4.01932,-18.12397 -9.11826,-23.59032 l -4.92172,-5.27633 -5.8214,3.09999 c -6.73212,3.58498 -15.57848,13.0192 -18.53496,19.76666 -2.74652,6.2683 -2.63707,20.40079 0.22385,28.90374 2.09469,6.22561 9.15755,17.76293 10.87401,17.76293 0.37664,0 3.08555,-1.51552 6.0198,-3.36783 z"
       id="path3868"
       inkscape:connector-curvature="0"
       sodipodi:nodetypes="sssssssssssssssssccccsssscssscssssssssccssssssssscssscsssssssscssccsccccscsscscscscscsccscssscsssccscccccsssccscccsscccccccsssssccsccccccccsccsccccscccscsssscccccccccccccccsccsccsscccsccscsscssssccsssssssscssscssscccccccccccccsccscssccsssscccccsscsssssssscsssssscssccccccssscccccss"
       inkscape:label="black border" />
  </g>
</svg>
